G04 #@! TF.GenerationSoftware,KiCad,Pcbnew,(5.1.2)-2*
G04 #@! TF.CreationDate,2020-07-12T21:59:46+03:00*
G04 #@! TF.ProjectId,KB-Prototype,4b422d50-726f-4746-9f74-7970652e6b69,rev?*
G04 #@! TF.SameCoordinates,Original*
G04 #@! TF.FileFunction,Soldermask,Bot*
G04 #@! TF.FilePolarity,Negative*
%FSLAX46Y46*%
G04 Gerber Fmt 4.6, Leading zero omitted, Abs format (unit mm)*
G04 Created by KiCad (PCBNEW (5.1.2)-2) date 2020-07-12 21:59:46*
%MOMM*%
%LPD*%
G04 APERTURE LIST*
%ADD10C,0.100000*%
G04 APERTURE END LIST*
D10*
G36*
X90314331Y-76246211D02*
G01*
X90642092Y-76381974D01*
X90937070Y-76579072D01*
X91187928Y-76829930D01*
X91385026Y-77124908D01*
X91520789Y-77452669D01*
X91590000Y-77800616D01*
X91590000Y-78155384D01*
X91520789Y-78503331D01*
X91385026Y-78831092D01*
X91187928Y-79126070D01*
X90937070Y-79376928D01*
X90642092Y-79574026D01*
X90314331Y-79709789D01*
X89966384Y-79779000D01*
X89611616Y-79779000D01*
X89263669Y-79709789D01*
X88935908Y-79574026D01*
X88640930Y-79376928D01*
X88390072Y-79126070D01*
X88192974Y-78831092D01*
X88057211Y-78503331D01*
X87988000Y-78155384D01*
X87988000Y-77800616D01*
X88057211Y-77452669D01*
X88192974Y-77124908D01*
X88390072Y-76829930D01*
X88640930Y-76579072D01*
X88935908Y-76381974D01*
X89263669Y-76246211D01*
X89611616Y-76177000D01*
X89966384Y-76177000D01*
X90314331Y-76246211D01*
X90314331Y-76246211D01*
G37*
G36*
X27322331Y-76246211D02*
G01*
X27650092Y-76381974D01*
X27945070Y-76579072D01*
X28195928Y-76829930D01*
X28393026Y-77124908D01*
X28528789Y-77452669D01*
X28598000Y-77800616D01*
X28598000Y-78155384D01*
X28528789Y-78503331D01*
X28393026Y-78831092D01*
X28195928Y-79126070D01*
X27945070Y-79376928D01*
X27650092Y-79574026D01*
X27322331Y-79709789D01*
X26974384Y-79779000D01*
X26619616Y-79779000D01*
X26271669Y-79709789D01*
X25943908Y-79574026D01*
X25648930Y-79376928D01*
X25398072Y-79126070D01*
X25200974Y-78831092D01*
X25065211Y-78503331D01*
X24996000Y-78155384D01*
X24996000Y-77800616D01*
X25065211Y-77452669D01*
X25200974Y-77124908D01*
X25398072Y-76829930D01*
X25648930Y-76579072D01*
X25943908Y-76381974D01*
X26271669Y-76246211D01*
X26619616Y-76177000D01*
X26974384Y-76177000D01*
X27322331Y-76246211D01*
X27322331Y-76246211D01*
G37*
G36*
X43313500Y-78494750D02*
G01*
X42411500Y-78494750D01*
X42411500Y-77492750D01*
X43313500Y-77492750D01*
X43313500Y-78494750D01*
X43313500Y-78494750D01*
G37*
G36*
X44263500Y-76494750D02*
G01*
X43361500Y-76494750D01*
X43361500Y-75492750D01*
X44263500Y-75492750D01*
X44263500Y-76494750D01*
X44263500Y-76494750D01*
G37*
G36*
X42363500Y-76494750D02*
G01*
X41461500Y-76494750D01*
X41461500Y-75492750D01*
X42363500Y-75492750D01*
X42363500Y-76494750D01*
X42363500Y-76494750D01*
G37*
G36*
X52983974Y-69471184D02*
G01*
X53201974Y-69561483D01*
X53356123Y-69625333D01*
X53691048Y-69849123D01*
X53975877Y-70133952D01*
X54199667Y-70468877D01*
X54232062Y-70547086D01*
X54353816Y-70841026D01*
X54432400Y-71236094D01*
X54432400Y-71638906D01*
X54353816Y-72033974D01*
X54302951Y-72156772D01*
X54199667Y-72406123D01*
X53975877Y-72741048D01*
X53691048Y-73025877D01*
X53356123Y-73249667D01*
X53201974Y-73313517D01*
X52983974Y-73403816D01*
X52588906Y-73482400D01*
X52186094Y-73482400D01*
X51791026Y-73403816D01*
X51573026Y-73313517D01*
X51418877Y-73249667D01*
X51083952Y-73025877D01*
X50799123Y-72741048D01*
X50575333Y-72406123D01*
X50472049Y-72156772D01*
X50421184Y-72033974D01*
X50342600Y-71638906D01*
X50342600Y-71236094D01*
X50421184Y-70841026D01*
X50542938Y-70547086D01*
X50575333Y-70468877D01*
X50799123Y-70133952D01*
X51083952Y-69849123D01*
X51418877Y-69625333D01*
X51573026Y-69561483D01*
X51791026Y-69471184D01*
X52186094Y-69392600D01*
X52588906Y-69392600D01*
X52983974Y-69471184D01*
X52983974Y-69471184D01*
G37*
G36*
X33933974Y-69471184D02*
G01*
X34151974Y-69561483D01*
X34306123Y-69625333D01*
X34641048Y-69849123D01*
X34925877Y-70133952D01*
X35149667Y-70468877D01*
X35182062Y-70547086D01*
X35303816Y-70841026D01*
X35382400Y-71236094D01*
X35382400Y-71638906D01*
X35303816Y-72033974D01*
X35252951Y-72156772D01*
X35149667Y-72406123D01*
X34925877Y-72741048D01*
X34641048Y-73025877D01*
X34306123Y-73249667D01*
X34151974Y-73313517D01*
X33933974Y-73403816D01*
X33538906Y-73482400D01*
X33136094Y-73482400D01*
X32741026Y-73403816D01*
X32523026Y-73313517D01*
X32368877Y-73249667D01*
X32033952Y-73025877D01*
X31749123Y-72741048D01*
X31525333Y-72406123D01*
X31422049Y-72156772D01*
X31371184Y-72033974D01*
X31292600Y-71638906D01*
X31292600Y-71236094D01*
X31371184Y-70841026D01*
X31492938Y-70547086D01*
X31525333Y-70468877D01*
X31749123Y-70133952D01*
X32033952Y-69849123D01*
X32368877Y-69625333D01*
X32523026Y-69561483D01*
X32741026Y-69471184D01*
X33136094Y-69392600D01*
X33538906Y-69392600D01*
X33933974Y-69471184D01*
X33933974Y-69471184D01*
G37*
G36*
X28527604Y-70547085D02*
G01*
X28696126Y-70616889D01*
X28847791Y-70718228D01*
X28976772Y-70847209D01*
X29078111Y-70998874D01*
X29147915Y-71167396D01*
X29183500Y-71346297D01*
X29183500Y-71528703D01*
X29147915Y-71707604D01*
X29078111Y-71876126D01*
X28976772Y-72027791D01*
X28847791Y-72156772D01*
X28696126Y-72258111D01*
X28527604Y-72327915D01*
X28348703Y-72363500D01*
X28166297Y-72363500D01*
X27987396Y-72327915D01*
X27818874Y-72258111D01*
X27667209Y-72156772D01*
X27538228Y-72027791D01*
X27436889Y-71876126D01*
X27367085Y-71707604D01*
X27331500Y-71528703D01*
X27331500Y-71346297D01*
X27367085Y-71167396D01*
X27436889Y-70998874D01*
X27538228Y-70847209D01*
X27667209Y-70718228D01*
X27818874Y-70616889D01*
X27987396Y-70547085D01*
X28166297Y-70511500D01*
X28348703Y-70511500D01*
X28527604Y-70547085D01*
X28527604Y-70547085D01*
G37*
G36*
X47577604Y-70547085D02*
G01*
X47746126Y-70616889D01*
X47897791Y-70718228D01*
X48026772Y-70847209D01*
X48128111Y-70998874D01*
X48197915Y-71167396D01*
X48233500Y-71346297D01*
X48233500Y-71528703D01*
X48197915Y-71707604D01*
X48128111Y-71876126D01*
X48026772Y-72027791D01*
X47897791Y-72156772D01*
X47746126Y-72258111D01*
X47577604Y-72327915D01*
X47398703Y-72363500D01*
X47216297Y-72363500D01*
X47037396Y-72327915D01*
X46868874Y-72258111D01*
X46717209Y-72156772D01*
X46588228Y-72027791D01*
X46486889Y-71876126D01*
X46417085Y-71707604D01*
X46381500Y-71528703D01*
X46381500Y-71346297D01*
X46417085Y-71167396D01*
X46486889Y-70998874D01*
X46588228Y-70847209D01*
X46717209Y-70718228D01*
X46868874Y-70616889D01*
X47037396Y-70547085D01*
X47216297Y-70511500D01*
X47398703Y-70511500D01*
X47577604Y-70547085D01*
X47577604Y-70547085D01*
G37*
G36*
X57737604Y-70547085D02*
G01*
X57906126Y-70616889D01*
X58057791Y-70718228D01*
X58186772Y-70847209D01*
X58288111Y-70998874D01*
X58357915Y-71167396D01*
X58393500Y-71346297D01*
X58393500Y-71528703D01*
X58357915Y-71707604D01*
X58288111Y-71876126D01*
X58186772Y-72027791D01*
X58057791Y-72156772D01*
X57906126Y-72258111D01*
X57737604Y-72327915D01*
X57558703Y-72363500D01*
X57376297Y-72363500D01*
X57197396Y-72327915D01*
X57028874Y-72258111D01*
X56877209Y-72156772D01*
X56748228Y-72027791D01*
X56646889Y-71876126D01*
X56577085Y-71707604D01*
X56541500Y-71528703D01*
X56541500Y-71346297D01*
X56577085Y-71167396D01*
X56646889Y-70998874D01*
X56748228Y-70847209D01*
X56877209Y-70718228D01*
X57028874Y-70616889D01*
X57197396Y-70547085D01*
X57376297Y-70511500D01*
X57558703Y-70511500D01*
X57737604Y-70547085D01*
X57737604Y-70547085D01*
G37*
G36*
X38687604Y-70547085D02*
G01*
X38856126Y-70616889D01*
X39007791Y-70718228D01*
X39136772Y-70847209D01*
X39238111Y-70998874D01*
X39307915Y-71167396D01*
X39343500Y-71346297D01*
X39343500Y-71528703D01*
X39307915Y-71707604D01*
X39238111Y-71876126D01*
X39136772Y-72027791D01*
X39007791Y-72156772D01*
X38856126Y-72258111D01*
X38687604Y-72327915D01*
X38508703Y-72363500D01*
X38326297Y-72363500D01*
X38147396Y-72327915D01*
X37978874Y-72258111D01*
X37827209Y-72156772D01*
X37698228Y-72027791D01*
X37596889Y-71876126D01*
X37527085Y-71707604D01*
X37491500Y-71528703D01*
X37491500Y-71346297D01*
X37527085Y-71167396D01*
X37596889Y-70998874D01*
X37698228Y-70847209D01*
X37827209Y-70718228D01*
X37978874Y-70616889D01*
X38147396Y-70547085D01*
X38326297Y-70511500D01*
X38508703Y-70511500D01*
X38687604Y-70547085D01*
X38687604Y-70547085D01*
G37*
G36*
X29719060Y-67736564D02*
G01*
X29870527Y-67766693D01*
X30084545Y-67855342D01*
X30084546Y-67855343D01*
X30277154Y-67984039D01*
X30440961Y-68147846D01*
X30526758Y-68276251D01*
X30569658Y-68340455D01*
X30658307Y-68554473D01*
X30703500Y-68781674D01*
X30703500Y-69013326D01*
X30658307Y-69240527D01*
X30569658Y-69454545D01*
X30569657Y-69454546D01*
X30440961Y-69647154D01*
X30277154Y-69810961D01*
X30220040Y-69849123D01*
X30084545Y-69939658D01*
X29870527Y-70028307D01*
X29719060Y-70058436D01*
X29643327Y-70073500D01*
X29411673Y-70073500D01*
X29335940Y-70058436D01*
X29184473Y-70028307D01*
X28970455Y-69939658D01*
X28834960Y-69849123D01*
X28777846Y-69810961D01*
X28614039Y-69647154D01*
X28485343Y-69454546D01*
X28485342Y-69454545D01*
X28396693Y-69240527D01*
X28351500Y-69013326D01*
X28351500Y-68781674D01*
X28396693Y-68554473D01*
X28485342Y-68340455D01*
X28528242Y-68276251D01*
X28614039Y-68147846D01*
X28777846Y-67984039D01*
X28970454Y-67855343D01*
X28970455Y-67855342D01*
X29184473Y-67766693D01*
X29335940Y-67736564D01*
X29411673Y-67721500D01*
X29643327Y-67721500D01*
X29719060Y-67736564D01*
X29719060Y-67736564D01*
G37*
G36*
X48769060Y-67736564D02*
G01*
X48920527Y-67766693D01*
X49134545Y-67855342D01*
X49134546Y-67855343D01*
X49327154Y-67984039D01*
X49490961Y-68147846D01*
X49576758Y-68276251D01*
X49619658Y-68340455D01*
X49708307Y-68554473D01*
X49753500Y-68781674D01*
X49753500Y-69013326D01*
X49708307Y-69240527D01*
X49619658Y-69454545D01*
X49619657Y-69454546D01*
X49490961Y-69647154D01*
X49327154Y-69810961D01*
X49270040Y-69849123D01*
X49134545Y-69939658D01*
X48920527Y-70028307D01*
X48769060Y-70058436D01*
X48693327Y-70073500D01*
X48461673Y-70073500D01*
X48385940Y-70058436D01*
X48234473Y-70028307D01*
X48020455Y-69939658D01*
X47884960Y-69849123D01*
X47827846Y-69810961D01*
X47664039Y-69647154D01*
X47535343Y-69454546D01*
X47535342Y-69454545D01*
X47446693Y-69240527D01*
X47401500Y-69013326D01*
X47401500Y-68781674D01*
X47446693Y-68554473D01*
X47535342Y-68340455D01*
X47578242Y-68276251D01*
X47664039Y-68147846D01*
X47827846Y-67984039D01*
X48020454Y-67855343D01*
X48020455Y-67855342D01*
X48234473Y-67766693D01*
X48385940Y-67736564D01*
X48461673Y-67721500D01*
X48693327Y-67721500D01*
X48769060Y-67736564D01*
X48769060Y-67736564D01*
G37*
G36*
X55119060Y-65196564D02*
G01*
X55270527Y-65226693D01*
X55484545Y-65315342D01*
X55484546Y-65315343D01*
X55677154Y-65444039D01*
X55840961Y-65607846D01*
X55926758Y-65736251D01*
X55969658Y-65800455D01*
X56058307Y-66014473D01*
X56103500Y-66241674D01*
X56103500Y-66473326D01*
X56058307Y-66700527D01*
X55969658Y-66914545D01*
X55964602Y-66922112D01*
X55840961Y-67107154D01*
X55677154Y-67270961D01*
X55548749Y-67356758D01*
X55484545Y-67399658D01*
X55270527Y-67488307D01*
X55119060Y-67518436D01*
X55043327Y-67533500D01*
X54811673Y-67533500D01*
X54735940Y-67518436D01*
X54584473Y-67488307D01*
X54370455Y-67399658D01*
X54306251Y-67356758D01*
X54177846Y-67270961D01*
X54014039Y-67107154D01*
X53890398Y-66922112D01*
X53885342Y-66914545D01*
X53796693Y-66700527D01*
X53751500Y-66473326D01*
X53751500Y-66241674D01*
X53796693Y-66014473D01*
X53885342Y-65800455D01*
X53928242Y-65736251D01*
X54014039Y-65607846D01*
X54177846Y-65444039D01*
X54370454Y-65315343D01*
X54370455Y-65315342D01*
X54584473Y-65226693D01*
X54735940Y-65196564D01*
X54811673Y-65181500D01*
X55043327Y-65181500D01*
X55119060Y-65196564D01*
X55119060Y-65196564D01*
G37*
G36*
X36069060Y-65196564D02*
G01*
X36220527Y-65226693D01*
X36434545Y-65315342D01*
X36434546Y-65315343D01*
X36627154Y-65444039D01*
X36790961Y-65607846D01*
X36876758Y-65736251D01*
X36919658Y-65800455D01*
X37008307Y-66014473D01*
X37053500Y-66241674D01*
X37053500Y-66473326D01*
X37008307Y-66700527D01*
X36919658Y-66914545D01*
X36914602Y-66922112D01*
X36790961Y-67107154D01*
X36627154Y-67270961D01*
X36498749Y-67356758D01*
X36434545Y-67399658D01*
X36220527Y-67488307D01*
X36069060Y-67518436D01*
X35993327Y-67533500D01*
X35761673Y-67533500D01*
X35685940Y-67518436D01*
X35534473Y-67488307D01*
X35320455Y-67399658D01*
X35256251Y-67356758D01*
X35127846Y-67270961D01*
X34964039Y-67107154D01*
X34840398Y-66922112D01*
X34835342Y-66914545D01*
X34746693Y-66700527D01*
X34701500Y-66473326D01*
X34701500Y-66241674D01*
X34746693Y-66014473D01*
X34835342Y-65800455D01*
X34878242Y-65736251D01*
X34964039Y-65607846D01*
X35127846Y-65444039D01*
X35320454Y-65315343D01*
X35320455Y-65315342D01*
X35534473Y-65226693D01*
X35685940Y-65196564D01*
X35761673Y-65181500D01*
X35993327Y-65181500D01*
X36069060Y-65196564D01*
X36069060Y-65196564D01*
G37*
G36*
X79197468Y-66062565D02*
G01*
X79236138Y-66074296D01*
X79271777Y-66093346D01*
X79303017Y-66118983D01*
X79328654Y-66150223D01*
X79347704Y-66185862D01*
X79359435Y-66224532D01*
X79364000Y-66270888D01*
X79364000Y-66922112D01*
X79359435Y-66968468D01*
X79347704Y-67007138D01*
X79328654Y-67042777D01*
X79303017Y-67074017D01*
X79271777Y-67099654D01*
X79236138Y-67118704D01*
X79197468Y-67130435D01*
X79151112Y-67135000D01*
X78074888Y-67135000D01*
X78028532Y-67130435D01*
X77989862Y-67118704D01*
X77954223Y-67099654D01*
X77922983Y-67074017D01*
X77897346Y-67042777D01*
X77878296Y-67007138D01*
X77866565Y-66968468D01*
X77862000Y-66922112D01*
X77862000Y-66270888D01*
X77866565Y-66224532D01*
X77878296Y-66185862D01*
X77897346Y-66150223D01*
X77922983Y-66118983D01*
X77954223Y-66093346D01*
X77989862Y-66074296D01*
X78028532Y-66062565D01*
X78074888Y-66058000D01*
X79151112Y-66058000D01*
X79197468Y-66062565D01*
X79197468Y-66062565D01*
G37*
G36*
X79197468Y-64187565D02*
G01*
X79236138Y-64199296D01*
X79271777Y-64218346D01*
X79303017Y-64243983D01*
X79328654Y-64275223D01*
X79347704Y-64310862D01*
X79359435Y-64349532D01*
X79364000Y-64395888D01*
X79364000Y-65047112D01*
X79359435Y-65093468D01*
X79347704Y-65132138D01*
X79328654Y-65167777D01*
X79303017Y-65199017D01*
X79271777Y-65224654D01*
X79236138Y-65243704D01*
X79197468Y-65255435D01*
X79151112Y-65260000D01*
X78074888Y-65260000D01*
X78028532Y-65255435D01*
X77989862Y-65243704D01*
X77954223Y-65224654D01*
X77922983Y-65199017D01*
X77897346Y-65167777D01*
X77878296Y-65132138D01*
X77866565Y-65093468D01*
X77862000Y-65047112D01*
X77862000Y-64395888D01*
X77866565Y-64349532D01*
X77878296Y-64310862D01*
X77897346Y-64275223D01*
X77922983Y-64243983D01*
X77954223Y-64218346D01*
X77989862Y-64199296D01*
X78028532Y-64187565D01*
X78074888Y-64183000D01*
X79151112Y-64183000D01*
X79197468Y-64187565D01*
X79197468Y-64187565D01*
G37*
G36*
X83065718Y-62753565D02*
G01*
X83104388Y-62765296D01*
X83140027Y-62784346D01*
X83171267Y-62809983D01*
X83196904Y-62841223D01*
X83215954Y-62876862D01*
X83227685Y-62915532D01*
X83232250Y-62961888D01*
X83232250Y-64038112D01*
X83227685Y-64084468D01*
X83215954Y-64123138D01*
X83196904Y-64158777D01*
X83171267Y-64190017D01*
X83140027Y-64215654D01*
X83104388Y-64234704D01*
X83065718Y-64246435D01*
X83019362Y-64251000D01*
X82368138Y-64251000D01*
X82321782Y-64246435D01*
X82283112Y-64234704D01*
X82247473Y-64215654D01*
X82216233Y-64190017D01*
X82190596Y-64158777D01*
X82171546Y-64123138D01*
X82159815Y-64084468D01*
X82155250Y-64038112D01*
X82155250Y-62961888D01*
X82159815Y-62915532D01*
X82171546Y-62876862D01*
X82190596Y-62841223D01*
X82216233Y-62809983D01*
X82247473Y-62784346D01*
X82283112Y-62765296D01*
X82321782Y-62753565D01*
X82368138Y-62749000D01*
X83019362Y-62749000D01*
X83065718Y-62753565D01*
X83065718Y-62753565D01*
G37*
G36*
X81190718Y-62753565D02*
G01*
X81229388Y-62765296D01*
X81265027Y-62784346D01*
X81296267Y-62809983D01*
X81321904Y-62841223D01*
X81340954Y-62876862D01*
X81352685Y-62915532D01*
X81357250Y-62961888D01*
X81357250Y-64038112D01*
X81352685Y-64084468D01*
X81340954Y-64123138D01*
X81321904Y-64158777D01*
X81296267Y-64190017D01*
X81265027Y-64215654D01*
X81229388Y-64234704D01*
X81190718Y-64246435D01*
X81144362Y-64251000D01*
X80493138Y-64251000D01*
X80446782Y-64246435D01*
X80408112Y-64234704D01*
X80372473Y-64215654D01*
X80341233Y-64190017D01*
X80315596Y-64158777D01*
X80296546Y-64123138D01*
X80284815Y-64084468D01*
X80280250Y-64038112D01*
X80280250Y-62961888D01*
X80284815Y-62915532D01*
X80296546Y-62876862D01*
X80315596Y-62841223D01*
X80341233Y-62809983D01*
X80372473Y-62784346D01*
X80408112Y-62765296D01*
X80446782Y-62753565D01*
X80493138Y-62749000D01*
X81144362Y-62749000D01*
X81190718Y-62753565D01*
X81190718Y-62753565D01*
G37*
G36*
X68402468Y-60601565D02*
G01*
X68441138Y-60613296D01*
X68476777Y-60632346D01*
X68508017Y-60657983D01*
X68533654Y-60689223D01*
X68552704Y-60724862D01*
X68564435Y-60763532D01*
X68569000Y-60809888D01*
X68569000Y-61461112D01*
X68564435Y-61507468D01*
X68552704Y-61546138D01*
X68533654Y-61581777D01*
X68508017Y-61613017D01*
X68476777Y-61638654D01*
X68441138Y-61657704D01*
X68402468Y-61669435D01*
X68356112Y-61674000D01*
X67279888Y-61674000D01*
X67233532Y-61669435D01*
X67194862Y-61657704D01*
X67159223Y-61638654D01*
X67127983Y-61613017D01*
X67102346Y-61581777D01*
X67083296Y-61546138D01*
X67071565Y-61507468D01*
X67067000Y-61461112D01*
X67067000Y-60809888D01*
X67071565Y-60763532D01*
X67083296Y-60724862D01*
X67102346Y-60689223D01*
X67127983Y-60657983D01*
X67159223Y-60632346D01*
X67194862Y-60613296D01*
X67233532Y-60601565D01*
X67279888Y-60597000D01*
X68356112Y-60597000D01*
X68402468Y-60601565D01*
X68402468Y-60601565D01*
G37*
G36*
X81319750Y-61269750D02*
G01*
X72667750Y-61269750D01*
X72667750Y-59667750D01*
X81319750Y-59667750D01*
X81319750Y-61269750D01*
X81319750Y-61269750D01*
G37*
G36*
X86436468Y-60093565D02*
G01*
X86475138Y-60105296D01*
X86510777Y-60124346D01*
X86542017Y-60149983D01*
X86567654Y-60181223D01*
X86586704Y-60216862D01*
X86598435Y-60255532D01*
X86603000Y-60301888D01*
X86603000Y-60953112D01*
X86598435Y-60999468D01*
X86586704Y-61038138D01*
X86567654Y-61073777D01*
X86542017Y-61105017D01*
X86510777Y-61130654D01*
X86475138Y-61149704D01*
X86436468Y-61161435D01*
X86390112Y-61166000D01*
X85313888Y-61166000D01*
X85267532Y-61161435D01*
X85228862Y-61149704D01*
X85193223Y-61130654D01*
X85161983Y-61105017D01*
X85136346Y-61073777D01*
X85117296Y-61038138D01*
X85105565Y-60999468D01*
X85101000Y-60953112D01*
X85101000Y-60301888D01*
X85105565Y-60255532D01*
X85117296Y-60216862D01*
X85136346Y-60181223D01*
X85161983Y-60149983D01*
X85193223Y-60124346D01*
X85228862Y-60105296D01*
X85267532Y-60093565D01*
X85313888Y-60089000D01*
X86390112Y-60089000D01*
X86436468Y-60093565D01*
X86436468Y-60093565D01*
G37*
G36*
X68402468Y-58726565D02*
G01*
X68441138Y-58738296D01*
X68476777Y-58757346D01*
X68508017Y-58782983D01*
X68533654Y-58814223D01*
X68552704Y-58849862D01*
X68564435Y-58888532D01*
X68569000Y-58934888D01*
X68569000Y-59586112D01*
X68564435Y-59632468D01*
X68552704Y-59671138D01*
X68533654Y-59706777D01*
X68508017Y-59738017D01*
X68476777Y-59763654D01*
X68441138Y-59782704D01*
X68402468Y-59794435D01*
X68356112Y-59799000D01*
X67279888Y-59799000D01*
X67233532Y-59794435D01*
X67194862Y-59782704D01*
X67159223Y-59763654D01*
X67127983Y-59738017D01*
X67102346Y-59706777D01*
X67083296Y-59671138D01*
X67071565Y-59632468D01*
X67067000Y-59586112D01*
X67067000Y-58934888D01*
X67071565Y-58888532D01*
X67083296Y-58849862D01*
X67102346Y-58814223D01*
X67127983Y-58782983D01*
X67159223Y-58757346D01*
X67194862Y-58738296D01*
X67233532Y-58726565D01*
X67279888Y-58722000D01*
X68356112Y-58722000D01*
X68402468Y-58726565D01*
X68402468Y-58726565D01*
G37*
G36*
X43313500Y-59444750D02*
G01*
X42411500Y-59444750D01*
X42411500Y-58442750D01*
X43313500Y-58442750D01*
X43313500Y-59444750D01*
X43313500Y-59444750D01*
G37*
G36*
X86436468Y-58218565D02*
G01*
X86475138Y-58230296D01*
X86510777Y-58249346D01*
X86542017Y-58274983D01*
X86567654Y-58306223D01*
X86586704Y-58341862D01*
X86598435Y-58380532D01*
X86603000Y-58426888D01*
X86603000Y-59078112D01*
X86598435Y-59124468D01*
X86586704Y-59163138D01*
X86567654Y-59198777D01*
X86542017Y-59230017D01*
X86510777Y-59255654D01*
X86475138Y-59274704D01*
X86436468Y-59286435D01*
X86390112Y-59291000D01*
X85313888Y-59291000D01*
X85267532Y-59286435D01*
X85228862Y-59274704D01*
X85193223Y-59255654D01*
X85161983Y-59230017D01*
X85136346Y-59198777D01*
X85117296Y-59163138D01*
X85105565Y-59124468D01*
X85101000Y-59078112D01*
X85101000Y-58426888D01*
X85105565Y-58380532D01*
X85117296Y-58341862D01*
X85136346Y-58306223D01*
X85161983Y-58274983D01*
X85193223Y-58249346D01*
X85228862Y-58230296D01*
X85267532Y-58218565D01*
X85313888Y-58214000D01*
X86390112Y-58214000D01*
X86436468Y-58218565D01*
X86436468Y-58218565D01*
G37*
G36*
X83494750Y-59094750D02*
G01*
X81892750Y-59094750D01*
X81892750Y-50442750D01*
X83494750Y-50442750D01*
X83494750Y-59094750D01*
X83494750Y-59094750D01*
G37*
G36*
X72094750Y-59094750D02*
G01*
X70492750Y-59094750D01*
X70492750Y-50442750D01*
X72094750Y-50442750D01*
X72094750Y-59094750D01*
X72094750Y-59094750D01*
G37*
G36*
X44263500Y-57444750D02*
G01*
X43361500Y-57444750D01*
X43361500Y-56442750D01*
X44263500Y-56442750D01*
X44263500Y-57444750D01*
X44263500Y-57444750D01*
G37*
G36*
X42363500Y-57444750D02*
G01*
X41461500Y-57444750D01*
X41461500Y-56442750D01*
X42363500Y-56442750D01*
X42363500Y-57444750D01*
X42363500Y-57444750D01*
G37*
G36*
X68778218Y-54022315D02*
G01*
X68816888Y-54034046D01*
X68852527Y-54053096D01*
X68883767Y-54078733D01*
X68909404Y-54109973D01*
X68928454Y-54145612D01*
X68940185Y-54184282D01*
X68944750Y-54230638D01*
X68944750Y-55306862D01*
X68940185Y-55353218D01*
X68928454Y-55391888D01*
X68909404Y-55427527D01*
X68883767Y-55458767D01*
X68852527Y-55484404D01*
X68816888Y-55503454D01*
X68778218Y-55515185D01*
X68731862Y-55519750D01*
X68080638Y-55519750D01*
X68034282Y-55515185D01*
X67995612Y-55503454D01*
X67959973Y-55484404D01*
X67928733Y-55458767D01*
X67903096Y-55427527D01*
X67884046Y-55391888D01*
X67872315Y-55353218D01*
X67867750Y-55306862D01*
X67867750Y-54230638D01*
X67872315Y-54184282D01*
X67884046Y-54145612D01*
X67903096Y-54109973D01*
X67928733Y-54078733D01*
X67959973Y-54053096D01*
X67995612Y-54034046D01*
X68034282Y-54022315D01*
X68080638Y-54017750D01*
X68731862Y-54017750D01*
X68778218Y-54022315D01*
X68778218Y-54022315D01*
G37*
G36*
X66903218Y-54022315D02*
G01*
X66941888Y-54034046D01*
X66977527Y-54053096D01*
X67008767Y-54078733D01*
X67034404Y-54109973D01*
X67053454Y-54145612D01*
X67065185Y-54184282D01*
X67069750Y-54230638D01*
X67069750Y-55306862D01*
X67065185Y-55353218D01*
X67053454Y-55391888D01*
X67034404Y-55427527D01*
X67008767Y-55458767D01*
X66977527Y-55484404D01*
X66941888Y-55503454D01*
X66903218Y-55515185D01*
X66856862Y-55519750D01*
X66205638Y-55519750D01*
X66159282Y-55515185D01*
X66120612Y-55503454D01*
X66084973Y-55484404D01*
X66053733Y-55458767D01*
X66028096Y-55427527D01*
X66009046Y-55391888D01*
X65997315Y-55353218D01*
X65992750Y-55306862D01*
X65992750Y-54230638D01*
X65997315Y-54184282D01*
X66009046Y-54145612D01*
X66028096Y-54109973D01*
X66053733Y-54078733D01*
X66084973Y-54053096D01*
X66120612Y-54034046D01*
X66159282Y-54022315D01*
X66205638Y-54017750D01*
X66856862Y-54017750D01*
X66903218Y-54022315D01*
X66903218Y-54022315D01*
G37*
G36*
X33933974Y-50421184D02*
G01*
X34151974Y-50511483D01*
X34306123Y-50575333D01*
X34641048Y-50799123D01*
X34925877Y-51083952D01*
X35149667Y-51418877D01*
X35182062Y-51497086D01*
X35303816Y-51791026D01*
X35382400Y-52186094D01*
X35382400Y-52588906D01*
X35303816Y-52983974D01*
X35252951Y-53106772D01*
X35149667Y-53356123D01*
X34925877Y-53691048D01*
X34641048Y-53975877D01*
X34306123Y-54199667D01*
X34151974Y-54263517D01*
X33933974Y-54353816D01*
X33538906Y-54432400D01*
X33136094Y-54432400D01*
X32741026Y-54353816D01*
X32523026Y-54263517D01*
X32368877Y-54199667D01*
X32033952Y-53975877D01*
X31749123Y-53691048D01*
X31525333Y-53356123D01*
X31422049Y-53106772D01*
X31371184Y-52983974D01*
X31292600Y-52588906D01*
X31292600Y-52186094D01*
X31371184Y-51791026D01*
X31492938Y-51497086D01*
X31525333Y-51418877D01*
X31749123Y-51083952D01*
X32033952Y-50799123D01*
X32368877Y-50575333D01*
X32523026Y-50511483D01*
X32741026Y-50421184D01*
X33136094Y-50342600D01*
X33538906Y-50342600D01*
X33933974Y-50421184D01*
X33933974Y-50421184D01*
G37*
G36*
X52983974Y-50421184D02*
G01*
X53201974Y-50511483D01*
X53356123Y-50575333D01*
X53691048Y-50799123D01*
X53975877Y-51083952D01*
X54199667Y-51418877D01*
X54232062Y-51497086D01*
X54353816Y-51791026D01*
X54432400Y-52186094D01*
X54432400Y-52588906D01*
X54353816Y-52983974D01*
X54302951Y-53106772D01*
X54199667Y-53356123D01*
X53975877Y-53691048D01*
X53691048Y-53975877D01*
X53356123Y-54199667D01*
X53201974Y-54263517D01*
X52983974Y-54353816D01*
X52588906Y-54432400D01*
X52186094Y-54432400D01*
X51791026Y-54353816D01*
X51573026Y-54263517D01*
X51418877Y-54199667D01*
X51083952Y-53975877D01*
X50799123Y-53691048D01*
X50575333Y-53356123D01*
X50472049Y-53106772D01*
X50421184Y-52983974D01*
X50342600Y-52588906D01*
X50342600Y-52186094D01*
X50421184Y-51791026D01*
X50542938Y-51497086D01*
X50575333Y-51418877D01*
X50799123Y-51083952D01*
X51083952Y-50799123D01*
X51418877Y-50575333D01*
X51573026Y-50511483D01*
X51791026Y-50421184D01*
X52186094Y-50342600D01*
X52588906Y-50342600D01*
X52983974Y-50421184D01*
X52983974Y-50421184D01*
G37*
G36*
X38687604Y-51497085D02*
G01*
X38856126Y-51566889D01*
X39007791Y-51668228D01*
X39136772Y-51797209D01*
X39238111Y-51948874D01*
X39307915Y-52117396D01*
X39343500Y-52296297D01*
X39343500Y-52478703D01*
X39307915Y-52657604D01*
X39238111Y-52826126D01*
X39136772Y-52977791D01*
X39007791Y-53106772D01*
X38856126Y-53208111D01*
X38687604Y-53277915D01*
X38508703Y-53313500D01*
X38326297Y-53313500D01*
X38147396Y-53277915D01*
X37978874Y-53208111D01*
X37827209Y-53106772D01*
X37698228Y-52977791D01*
X37596889Y-52826126D01*
X37527085Y-52657604D01*
X37491500Y-52478703D01*
X37491500Y-52296297D01*
X37527085Y-52117396D01*
X37596889Y-51948874D01*
X37698228Y-51797209D01*
X37827209Y-51668228D01*
X37978874Y-51566889D01*
X38147396Y-51497085D01*
X38326297Y-51461500D01*
X38508703Y-51461500D01*
X38687604Y-51497085D01*
X38687604Y-51497085D01*
G37*
G36*
X28527604Y-51497085D02*
G01*
X28696126Y-51566889D01*
X28847791Y-51668228D01*
X28976772Y-51797209D01*
X29078111Y-51948874D01*
X29147915Y-52117396D01*
X29183500Y-52296297D01*
X29183500Y-52478703D01*
X29147915Y-52657604D01*
X29078111Y-52826126D01*
X28976772Y-52977791D01*
X28847791Y-53106772D01*
X28696126Y-53208111D01*
X28527604Y-53277915D01*
X28348703Y-53313500D01*
X28166297Y-53313500D01*
X27987396Y-53277915D01*
X27818874Y-53208111D01*
X27667209Y-53106772D01*
X27538228Y-52977791D01*
X27436889Y-52826126D01*
X27367085Y-52657604D01*
X27331500Y-52478703D01*
X27331500Y-52296297D01*
X27367085Y-52117396D01*
X27436889Y-51948874D01*
X27538228Y-51797209D01*
X27667209Y-51668228D01*
X27818874Y-51566889D01*
X27987396Y-51497085D01*
X28166297Y-51461500D01*
X28348703Y-51461500D01*
X28527604Y-51497085D01*
X28527604Y-51497085D01*
G37*
G36*
X47577604Y-51497085D02*
G01*
X47746126Y-51566889D01*
X47897791Y-51668228D01*
X48026772Y-51797209D01*
X48128111Y-51948874D01*
X48197915Y-52117396D01*
X48233500Y-52296297D01*
X48233500Y-52478703D01*
X48197915Y-52657604D01*
X48128111Y-52826126D01*
X48026772Y-52977791D01*
X47897791Y-53106772D01*
X47746126Y-53208111D01*
X47577604Y-53277915D01*
X47398703Y-53313500D01*
X47216297Y-53313500D01*
X47037396Y-53277915D01*
X46868874Y-53208111D01*
X46717209Y-53106772D01*
X46588228Y-52977791D01*
X46486889Y-52826126D01*
X46417085Y-52657604D01*
X46381500Y-52478703D01*
X46381500Y-52296297D01*
X46417085Y-52117396D01*
X46486889Y-51948874D01*
X46588228Y-51797209D01*
X46717209Y-51668228D01*
X46868874Y-51566889D01*
X47037396Y-51497085D01*
X47216297Y-51461500D01*
X47398703Y-51461500D01*
X47577604Y-51497085D01*
X47577604Y-51497085D01*
G37*
G36*
X57737604Y-51497085D02*
G01*
X57906126Y-51566889D01*
X58057791Y-51668228D01*
X58186772Y-51797209D01*
X58288111Y-51948874D01*
X58357915Y-52117396D01*
X58393500Y-52296297D01*
X58393500Y-52478703D01*
X58357915Y-52657604D01*
X58288111Y-52826126D01*
X58186772Y-52977791D01*
X58057791Y-53106772D01*
X57906126Y-53208111D01*
X57737604Y-53277915D01*
X57558703Y-53313500D01*
X57376297Y-53313500D01*
X57197396Y-53277915D01*
X57028874Y-53208111D01*
X56877209Y-53106772D01*
X56748228Y-52977791D01*
X56646889Y-52826126D01*
X56577085Y-52657604D01*
X56541500Y-52478703D01*
X56541500Y-52296297D01*
X56577085Y-52117396D01*
X56646889Y-51948874D01*
X56748228Y-51797209D01*
X56877209Y-51668228D01*
X57028874Y-51566889D01*
X57197396Y-51497085D01*
X57376297Y-51461500D01*
X57558703Y-51461500D01*
X57737604Y-51497085D01*
X57737604Y-51497085D01*
G37*
G36*
X86309468Y-50409815D02*
G01*
X86348138Y-50421546D01*
X86383777Y-50440596D01*
X86415017Y-50466233D01*
X86440654Y-50497473D01*
X86459704Y-50533112D01*
X86471435Y-50571782D01*
X86476000Y-50618138D01*
X86476000Y-51269362D01*
X86471435Y-51315718D01*
X86459704Y-51354388D01*
X86440654Y-51390027D01*
X86415017Y-51421267D01*
X86383777Y-51446904D01*
X86348138Y-51465954D01*
X86309468Y-51477685D01*
X86263112Y-51482250D01*
X85186888Y-51482250D01*
X85140532Y-51477685D01*
X85101862Y-51465954D01*
X85066223Y-51446904D01*
X85034983Y-51421267D01*
X85009346Y-51390027D01*
X84990296Y-51354388D01*
X84978565Y-51315718D01*
X84974000Y-51269362D01*
X84974000Y-50618138D01*
X84978565Y-50571782D01*
X84990296Y-50533112D01*
X85009346Y-50497473D01*
X85034983Y-50466233D01*
X85066223Y-50440596D01*
X85101862Y-50421546D01*
X85140532Y-50409815D01*
X85186888Y-50405250D01*
X86263112Y-50405250D01*
X86309468Y-50409815D01*
X86309468Y-50409815D01*
G37*
G36*
X29719060Y-48686564D02*
G01*
X29870527Y-48716693D01*
X30084545Y-48805342D01*
X30084546Y-48805343D01*
X30277154Y-48934039D01*
X30440961Y-49097846D01*
X30526758Y-49226251D01*
X30569658Y-49290455D01*
X30658307Y-49504473D01*
X30703500Y-49731674D01*
X30703500Y-49963326D01*
X30658307Y-50190527D01*
X30569658Y-50404545D01*
X30545569Y-50440596D01*
X30440961Y-50597154D01*
X30277154Y-50760961D01*
X30220040Y-50799123D01*
X30084545Y-50889658D01*
X29870527Y-50978307D01*
X29719060Y-51008436D01*
X29643327Y-51023500D01*
X29411673Y-51023500D01*
X29335940Y-51008436D01*
X29184473Y-50978307D01*
X28970455Y-50889658D01*
X28834960Y-50799123D01*
X28777846Y-50760961D01*
X28614039Y-50597154D01*
X28509431Y-50440596D01*
X28485342Y-50404545D01*
X28396693Y-50190527D01*
X28351500Y-49963326D01*
X28351500Y-49731674D01*
X28396693Y-49504473D01*
X28485342Y-49290455D01*
X28528242Y-49226251D01*
X28614039Y-49097846D01*
X28777846Y-48934039D01*
X28970454Y-48805343D01*
X28970455Y-48805342D01*
X29184473Y-48716693D01*
X29335940Y-48686564D01*
X29411673Y-48671500D01*
X29643327Y-48671500D01*
X29719060Y-48686564D01*
X29719060Y-48686564D01*
G37*
G36*
X48769060Y-48686564D02*
G01*
X48920527Y-48716693D01*
X49134545Y-48805342D01*
X49134546Y-48805343D01*
X49327154Y-48934039D01*
X49490961Y-49097846D01*
X49576758Y-49226251D01*
X49619658Y-49290455D01*
X49708307Y-49504473D01*
X49753500Y-49731674D01*
X49753500Y-49963326D01*
X49708307Y-50190527D01*
X49619658Y-50404545D01*
X49595569Y-50440596D01*
X49490961Y-50597154D01*
X49327154Y-50760961D01*
X49270040Y-50799123D01*
X49134545Y-50889658D01*
X48920527Y-50978307D01*
X48769060Y-51008436D01*
X48693327Y-51023500D01*
X48461673Y-51023500D01*
X48385940Y-51008436D01*
X48234473Y-50978307D01*
X48020455Y-50889658D01*
X47884960Y-50799123D01*
X47827846Y-50760961D01*
X47664039Y-50597154D01*
X47559431Y-50440596D01*
X47535342Y-50404545D01*
X47446693Y-50190527D01*
X47401500Y-49963326D01*
X47401500Y-49731674D01*
X47446693Y-49504473D01*
X47535342Y-49290455D01*
X47578242Y-49226251D01*
X47664039Y-49097846D01*
X47827846Y-48934039D01*
X48020454Y-48805343D01*
X48020455Y-48805342D01*
X48234473Y-48716693D01*
X48385940Y-48686564D01*
X48461673Y-48671500D01*
X48693327Y-48671500D01*
X48769060Y-48686564D01*
X48769060Y-48686564D01*
G37*
G36*
X81319750Y-49869750D02*
G01*
X72667750Y-49869750D01*
X72667750Y-48267750D01*
X81319750Y-48267750D01*
X81319750Y-49869750D01*
X81319750Y-49869750D01*
G37*
G36*
X86309468Y-48534815D02*
G01*
X86348138Y-48546546D01*
X86383777Y-48565596D01*
X86415017Y-48591233D01*
X86440654Y-48622473D01*
X86459704Y-48658112D01*
X86471435Y-48696782D01*
X86476000Y-48743138D01*
X86476000Y-49394362D01*
X86471435Y-49440718D01*
X86459704Y-49479388D01*
X86440654Y-49515027D01*
X86415017Y-49546267D01*
X86383777Y-49571904D01*
X86348138Y-49590954D01*
X86309468Y-49602685D01*
X86263112Y-49607250D01*
X85186888Y-49607250D01*
X85140532Y-49602685D01*
X85101862Y-49590954D01*
X85066223Y-49571904D01*
X85034983Y-49546267D01*
X85009346Y-49515027D01*
X84990296Y-49479388D01*
X84978565Y-49440718D01*
X84974000Y-49394362D01*
X84974000Y-48743138D01*
X84978565Y-48696782D01*
X84990296Y-48658112D01*
X85009346Y-48622473D01*
X85034983Y-48591233D01*
X85066223Y-48565596D01*
X85101862Y-48546546D01*
X85140532Y-48534815D01*
X85186888Y-48530250D01*
X86263112Y-48530250D01*
X86309468Y-48534815D01*
X86309468Y-48534815D01*
G37*
G36*
X55119060Y-46146564D02*
G01*
X55270527Y-46176693D01*
X55484545Y-46265342D01*
X55542981Y-46304388D01*
X55677154Y-46394039D01*
X55840961Y-46557846D01*
X55926758Y-46686251D01*
X55969658Y-46750455D01*
X56058307Y-46964473D01*
X56103500Y-47191674D01*
X56103500Y-47423326D01*
X56058307Y-47650527D01*
X55969658Y-47864545D01*
X55969657Y-47864546D01*
X55840961Y-48057154D01*
X55677154Y-48220961D01*
X55555756Y-48302076D01*
X55484545Y-48349658D01*
X55270527Y-48438307D01*
X55119060Y-48468436D01*
X55043327Y-48483500D01*
X54811673Y-48483500D01*
X54735940Y-48468436D01*
X54584473Y-48438307D01*
X54370455Y-48349658D01*
X54299244Y-48302076D01*
X54177846Y-48220961D01*
X54014039Y-48057154D01*
X53885343Y-47864546D01*
X53885342Y-47864545D01*
X53796693Y-47650527D01*
X53751500Y-47423326D01*
X53751500Y-47191674D01*
X53796693Y-46964473D01*
X53885342Y-46750455D01*
X53928242Y-46686251D01*
X54014039Y-46557846D01*
X54177846Y-46394039D01*
X54312019Y-46304388D01*
X54370455Y-46265342D01*
X54584473Y-46176693D01*
X54735940Y-46146564D01*
X54811673Y-46131500D01*
X55043327Y-46131500D01*
X55119060Y-46146564D01*
X55119060Y-46146564D01*
G37*
G36*
X36069060Y-46146564D02*
G01*
X36220527Y-46176693D01*
X36434545Y-46265342D01*
X36492981Y-46304388D01*
X36627154Y-46394039D01*
X36790961Y-46557846D01*
X36876758Y-46686251D01*
X36919658Y-46750455D01*
X37008307Y-46964473D01*
X37053500Y-47191674D01*
X37053500Y-47423326D01*
X37008307Y-47650527D01*
X36919658Y-47864545D01*
X36919657Y-47864546D01*
X36790961Y-48057154D01*
X36627154Y-48220961D01*
X36505756Y-48302076D01*
X36434545Y-48349658D01*
X36220527Y-48438307D01*
X36069060Y-48468436D01*
X35993327Y-48483500D01*
X35761673Y-48483500D01*
X35685940Y-48468436D01*
X35534473Y-48438307D01*
X35320455Y-48349658D01*
X35249244Y-48302076D01*
X35127846Y-48220961D01*
X34964039Y-48057154D01*
X34835343Y-47864546D01*
X34835342Y-47864545D01*
X34746693Y-47650527D01*
X34701500Y-47423326D01*
X34701500Y-47191674D01*
X34746693Y-46964473D01*
X34835342Y-46750455D01*
X34878242Y-46686251D01*
X34964039Y-46557846D01*
X35127846Y-46394039D01*
X35262019Y-46304388D01*
X35320455Y-46265342D01*
X35534473Y-46176693D01*
X35685940Y-46146564D01*
X35761673Y-46131500D01*
X35993327Y-46131500D01*
X36069060Y-46146564D01*
X36069060Y-46146564D01*
G37*
G36*
X70434468Y-47234815D02*
G01*
X70473138Y-47246546D01*
X70508777Y-47265596D01*
X70540017Y-47291233D01*
X70565654Y-47322473D01*
X70584704Y-47358112D01*
X70596435Y-47396782D01*
X70601000Y-47443138D01*
X70601000Y-48094362D01*
X70596435Y-48140718D01*
X70584704Y-48179388D01*
X70565654Y-48215027D01*
X70540017Y-48246267D01*
X70508777Y-48271904D01*
X70473138Y-48290954D01*
X70434468Y-48302685D01*
X70388112Y-48307250D01*
X69311888Y-48307250D01*
X69265532Y-48302685D01*
X69226862Y-48290954D01*
X69191223Y-48271904D01*
X69159983Y-48246267D01*
X69134346Y-48215027D01*
X69115296Y-48179388D01*
X69103565Y-48140718D01*
X69099000Y-48094362D01*
X69099000Y-47443138D01*
X69103565Y-47396782D01*
X69115296Y-47358112D01*
X69134346Y-47322473D01*
X69159983Y-47291233D01*
X69191223Y-47265596D01*
X69226862Y-47246546D01*
X69265532Y-47234815D01*
X69311888Y-47230250D01*
X70388112Y-47230250D01*
X70434468Y-47234815D01*
X70434468Y-47234815D01*
G37*
G36*
X66878468Y-47234815D02*
G01*
X66917138Y-47246546D01*
X66952777Y-47265596D01*
X66984017Y-47291233D01*
X67009654Y-47322473D01*
X67028704Y-47358112D01*
X67040435Y-47396782D01*
X67045000Y-47443138D01*
X67045000Y-48094362D01*
X67040435Y-48140718D01*
X67028704Y-48179388D01*
X67009654Y-48215027D01*
X66984017Y-48246267D01*
X66952777Y-48271904D01*
X66917138Y-48290954D01*
X66878468Y-48302685D01*
X66832112Y-48307250D01*
X65755888Y-48307250D01*
X65709532Y-48302685D01*
X65670862Y-48290954D01*
X65635223Y-48271904D01*
X65603983Y-48246267D01*
X65578346Y-48215027D01*
X65559296Y-48179388D01*
X65547565Y-48140718D01*
X65543000Y-48094362D01*
X65543000Y-47443138D01*
X65547565Y-47396782D01*
X65559296Y-47358112D01*
X65578346Y-47322473D01*
X65603983Y-47291233D01*
X65635223Y-47265596D01*
X65670862Y-47246546D01*
X65709532Y-47234815D01*
X65755888Y-47230250D01*
X66832112Y-47230250D01*
X66878468Y-47234815D01*
X66878468Y-47234815D01*
G37*
G36*
X66878468Y-45359815D02*
G01*
X66917138Y-45371546D01*
X66952777Y-45390596D01*
X66984017Y-45416233D01*
X67009654Y-45447473D01*
X67028704Y-45483112D01*
X67040435Y-45521782D01*
X67045000Y-45568138D01*
X67045000Y-46219362D01*
X67040435Y-46265718D01*
X67028704Y-46304388D01*
X67009654Y-46340027D01*
X66984017Y-46371267D01*
X66952777Y-46396904D01*
X66917138Y-46415954D01*
X66878468Y-46427685D01*
X66832112Y-46432250D01*
X65755888Y-46432250D01*
X65709532Y-46427685D01*
X65670862Y-46415954D01*
X65635223Y-46396904D01*
X65603983Y-46371267D01*
X65578346Y-46340027D01*
X65559296Y-46304388D01*
X65547565Y-46265718D01*
X65543000Y-46219362D01*
X65543000Y-45568138D01*
X65547565Y-45521782D01*
X65559296Y-45483112D01*
X65578346Y-45447473D01*
X65603983Y-45416233D01*
X65635223Y-45390596D01*
X65670862Y-45371546D01*
X65709532Y-45359815D01*
X65755888Y-45355250D01*
X66832112Y-45355250D01*
X66878468Y-45359815D01*
X66878468Y-45359815D01*
G37*
G36*
X70434468Y-45359815D02*
G01*
X70473138Y-45371546D01*
X70508777Y-45390596D01*
X70540017Y-45416233D01*
X70565654Y-45447473D01*
X70584704Y-45483112D01*
X70596435Y-45521782D01*
X70601000Y-45568138D01*
X70601000Y-46219362D01*
X70596435Y-46265718D01*
X70584704Y-46304388D01*
X70565654Y-46340027D01*
X70540017Y-46371267D01*
X70508777Y-46396904D01*
X70473138Y-46415954D01*
X70434468Y-46427685D01*
X70388112Y-46432250D01*
X69311888Y-46432250D01*
X69265532Y-46427685D01*
X69226862Y-46415954D01*
X69191223Y-46396904D01*
X69159983Y-46371267D01*
X69134346Y-46340027D01*
X69115296Y-46304388D01*
X69103565Y-46265718D01*
X69099000Y-46219362D01*
X69099000Y-45568138D01*
X69103565Y-45521782D01*
X69115296Y-45483112D01*
X69134346Y-45447473D01*
X69159983Y-45416233D01*
X69191223Y-45390596D01*
X69226862Y-45371546D01*
X69265532Y-45359815D01*
X69311888Y-45355250D01*
X70388112Y-45355250D01*
X70434468Y-45359815D01*
X70434468Y-45359815D01*
G37*
G36*
X78032000Y-45628000D02*
G01*
X77530000Y-45628000D01*
X77530000Y-43526000D01*
X78032000Y-43526000D01*
X78032000Y-45628000D01*
X78032000Y-45628000D01*
G37*
G36*
X76832000Y-45628000D02*
G01*
X76330000Y-45628000D01*
X76330000Y-43526000D01*
X76832000Y-43526000D01*
X76832000Y-45628000D01*
X76832000Y-45628000D01*
G37*
G36*
X75632000Y-45628000D02*
G01*
X75130000Y-45628000D01*
X75130000Y-43526000D01*
X75632000Y-43526000D01*
X75632000Y-45628000D01*
X75632000Y-45628000D01*
G37*
G36*
X43313500Y-40394750D02*
G01*
X42411500Y-40394750D01*
X42411500Y-39392750D01*
X43313500Y-39392750D01*
X43313500Y-40394750D01*
X43313500Y-40394750D01*
G37*
G36*
X65671968Y-38503565D02*
G01*
X65710638Y-38515296D01*
X65746277Y-38534346D01*
X65777517Y-38559983D01*
X65803154Y-38591223D01*
X65822204Y-38626862D01*
X65833935Y-38665532D01*
X65838500Y-38711888D01*
X65838500Y-39363112D01*
X65833935Y-39409468D01*
X65822204Y-39448138D01*
X65803154Y-39483777D01*
X65777517Y-39515017D01*
X65746277Y-39540654D01*
X65710638Y-39559704D01*
X65671968Y-39571435D01*
X65625612Y-39576000D01*
X64549388Y-39576000D01*
X64503032Y-39571435D01*
X64464362Y-39559704D01*
X64428723Y-39540654D01*
X64397483Y-39515017D01*
X64371846Y-39483777D01*
X64352796Y-39448138D01*
X64341065Y-39409468D01*
X64336500Y-39363112D01*
X64336500Y-38711888D01*
X64341065Y-38665532D01*
X64352796Y-38626862D01*
X64371846Y-38591223D01*
X64397483Y-38559983D01*
X64428723Y-38534346D01*
X64464362Y-38515296D01*
X64503032Y-38503565D01*
X64549388Y-38499000D01*
X65625612Y-38499000D01*
X65671968Y-38503565D01*
X65671968Y-38503565D01*
G37*
G36*
X68846968Y-38503565D02*
G01*
X68885638Y-38515296D01*
X68921277Y-38534346D01*
X68952517Y-38559983D01*
X68978154Y-38591223D01*
X68997204Y-38626862D01*
X69008935Y-38665532D01*
X69013500Y-38711888D01*
X69013500Y-39363112D01*
X69008935Y-39409468D01*
X68997204Y-39448138D01*
X68978154Y-39483777D01*
X68952517Y-39515017D01*
X68921277Y-39540654D01*
X68885638Y-39559704D01*
X68846968Y-39571435D01*
X68800612Y-39576000D01*
X67724388Y-39576000D01*
X67678032Y-39571435D01*
X67639362Y-39559704D01*
X67603723Y-39540654D01*
X67572483Y-39515017D01*
X67546846Y-39483777D01*
X67527796Y-39448138D01*
X67516065Y-39409468D01*
X67511500Y-39363112D01*
X67511500Y-38711888D01*
X67516065Y-38665532D01*
X67527796Y-38626862D01*
X67546846Y-38591223D01*
X67572483Y-38559983D01*
X67603723Y-38534346D01*
X67639362Y-38515296D01*
X67678032Y-38503565D01*
X67724388Y-38499000D01*
X68800612Y-38499000D01*
X68846968Y-38503565D01*
X68846968Y-38503565D01*
G37*
G36*
X42363500Y-38394750D02*
G01*
X41461500Y-38394750D01*
X41461500Y-37392750D01*
X42363500Y-37392750D01*
X42363500Y-38394750D01*
X42363500Y-38394750D01*
G37*
G36*
X44263500Y-38394750D02*
G01*
X43361500Y-38394750D01*
X43361500Y-37392750D01*
X44263500Y-37392750D01*
X44263500Y-38394750D01*
X44263500Y-38394750D01*
G37*
G36*
X68846968Y-36628565D02*
G01*
X68885638Y-36640296D01*
X68921277Y-36659346D01*
X68952517Y-36684983D01*
X68978154Y-36716223D01*
X68997204Y-36751862D01*
X69008935Y-36790532D01*
X69013500Y-36836888D01*
X69013500Y-37488112D01*
X69008935Y-37534468D01*
X68997204Y-37573138D01*
X68978154Y-37608777D01*
X68952517Y-37640017D01*
X68921277Y-37665654D01*
X68885638Y-37684704D01*
X68846968Y-37696435D01*
X68800612Y-37701000D01*
X67724388Y-37701000D01*
X67678032Y-37696435D01*
X67639362Y-37684704D01*
X67603723Y-37665654D01*
X67572483Y-37640017D01*
X67546846Y-37608777D01*
X67527796Y-37573138D01*
X67516065Y-37534468D01*
X67511500Y-37488112D01*
X67511500Y-36836888D01*
X67516065Y-36790532D01*
X67527796Y-36751862D01*
X67546846Y-36716223D01*
X67572483Y-36684983D01*
X67603723Y-36659346D01*
X67639362Y-36640296D01*
X67678032Y-36628565D01*
X67724388Y-36624000D01*
X68800612Y-36624000D01*
X68846968Y-36628565D01*
X68846968Y-36628565D01*
G37*
G36*
X65671968Y-36628565D02*
G01*
X65710638Y-36640296D01*
X65746277Y-36659346D01*
X65777517Y-36684983D01*
X65803154Y-36716223D01*
X65822204Y-36751862D01*
X65833935Y-36790532D01*
X65838500Y-36836888D01*
X65838500Y-37488112D01*
X65833935Y-37534468D01*
X65822204Y-37573138D01*
X65803154Y-37608777D01*
X65777517Y-37640017D01*
X65746277Y-37665654D01*
X65710638Y-37684704D01*
X65671968Y-37696435D01*
X65625612Y-37701000D01*
X64549388Y-37701000D01*
X64503032Y-37696435D01*
X64464362Y-37684704D01*
X64428723Y-37665654D01*
X64397483Y-37640017D01*
X64371846Y-37608777D01*
X64352796Y-37573138D01*
X64341065Y-37534468D01*
X64336500Y-37488112D01*
X64336500Y-36836888D01*
X64341065Y-36790532D01*
X64352796Y-36751862D01*
X64371846Y-36716223D01*
X64397483Y-36684983D01*
X64428723Y-36659346D01*
X64464362Y-36640296D01*
X64503032Y-36628565D01*
X64549388Y-36624000D01*
X65625612Y-36624000D01*
X65671968Y-36628565D01*
X65671968Y-36628565D01*
G37*
G36*
X33933974Y-31371184D02*
G01*
X34151974Y-31461483D01*
X34306123Y-31525333D01*
X34641048Y-31749123D01*
X34925877Y-32033952D01*
X35149667Y-32368877D01*
X35182062Y-32447086D01*
X35303816Y-32741026D01*
X35382400Y-33136094D01*
X35382400Y-33538906D01*
X35303816Y-33933974D01*
X35252951Y-34056772D01*
X35149667Y-34306123D01*
X34925877Y-34641048D01*
X34641048Y-34925877D01*
X34306123Y-35149667D01*
X34151974Y-35213517D01*
X33933974Y-35303816D01*
X33538906Y-35382400D01*
X33136094Y-35382400D01*
X32741026Y-35303816D01*
X32523026Y-35213517D01*
X32368877Y-35149667D01*
X32033952Y-34925877D01*
X31749123Y-34641048D01*
X31525333Y-34306123D01*
X31422049Y-34056772D01*
X31371184Y-33933974D01*
X31292600Y-33538906D01*
X31292600Y-33136094D01*
X31371184Y-32741026D01*
X31492938Y-32447086D01*
X31525333Y-32368877D01*
X31749123Y-32033952D01*
X32033952Y-31749123D01*
X32368877Y-31525333D01*
X32523026Y-31461483D01*
X32741026Y-31371184D01*
X33136094Y-31292600D01*
X33538906Y-31292600D01*
X33933974Y-31371184D01*
X33933974Y-31371184D01*
G37*
G36*
X52983974Y-31371184D02*
G01*
X53201974Y-31461483D01*
X53356123Y-31525333D01*
X53691048Y-31749123D01*
X53975877Y-32033952D01*
X54199667Y-32368877D01*
X54232062Y-32447086D01*
X54353816Y-32741026D01*
X54432400Y-33136094D01*
X54432400Y-33538906D01*
X54353816Y-33933974D01*
X54302951Y-34056772D01*
X54199667Y-34306123D01*
X53975877Y-34641048D01*
X53691048Y-34925877D01*
X53356123Y-35149667D01*
X53201974Y-35213517D01*
X52983974Y-35303816D01*
X52588906Y-35382400D01*
X52186094Y-35382400D01*
X51791026Y-35303816D01*
X51573026Y-35213517D01*
X51418877Y-35149667D01*
X51083952Y-34925877D01*
X50799123Y-34641048D01*
X50575333Y-34306123D01*
X50472049Y-34056772D01*
X50421184Y-33933974D01*
X50342600Y-33538906D01*
X50342600Y-33136094D01*
X50421184Y-32741026D01*
X50542938Y-32447086D01*
X50575333Y-32368877D01*
X50799123Y-32033952D01*
X51083952Y-31749123D01*
X51418877Y-31525333D01*
X51573026Y-31461483D01*
X51791026Y-31371184D01*
X52186094Y-31292600D01*
X52588906Y-31292600D01*
X52983974Y-31371184D01*
X52983974Y-31371184D01*
G37*
G36*
X57737604Y-32447085D02*
G01*
X57906126Y-32516889D01*
X58057791Y-32618228D01*
X58186772Y-32747209D01*
X58288111Y-32898874D01*
X58357915Y-33067396D01*
X58393500Y-33246297D01*
X58393500Y-33428703D01*
X58357915Y-33607604D01*
X58288111Y-33776126D01*
X58186772Y-33927791D01*
X58057791Y-34056772D01*
X57906126Y-34158111D01*
X57737604Y-34227915D01*
X57558703Y-34263500D01*
X57376297Y-34263500D01*
X57197396Y-34227915D01*
X57028874Y-34158111D01*
X56877209Y-34056772D01*
X56748228Y-33927791D01*
X56646889Y-33776126D01*
X56577085Y-33607604D01*
X56541500Y-33428703D01*
X56541500Y-33246297D01*
X56577085Y-33067396D01*
X56646889Y-32898874D01*
X56748228Y-32747209D01*
X56877209Y-32618228D01*
X57028874Y-32516889D01*
X57197396Y-32447085D01*
X57376297Y-32411500D01*
X57558703Y-32411500D01*
X57737604Y-32447085D01*
X57737604Y-32447085D01*
G37*
G36*
X47577604Y-32447085D02*
G01*
X47746126Y-32516889D01*
X47897791Y-32618228D01*
X48026772Y-32747209D01*
X48128111Y-32898874D01*
X48197915Y-33067396D01*
X48233500Y-33246297D01*
X48233500Y-33428703D01*
X48197915Y-33607604D01*
X48128111Y-33776126D01*
X48026772Y-33927791D01*
X47897791Y-34056772D01*
X47746126Y-34158111D01*
X47577604Y-34227915D01*
X47398703Y-34263500D01*
X47216297Y-34263500D01*
X47037396Y-34227915D01*
X46868874Y-34158111D01*
X46717209Y-34056772D01*
X46588228Y-33927791D01*
X46486889Y-33776126D01*
X46417085Y-33607604D01*
X46381500Y-33428703D01*
X46381500Y-33246297D01*
X46417085Y-33067396D01*
X46486889Y-32898874D01*
X46588228Y-32747209D01*
X46717209Y-32618228D01*
X46868874Y-32516889D01*
X47037396Y-32447085D01*
X47216297Y-32411500D01*
X47398703Y-32411500D01*
X47577604Y-32447085D01*
X47577604Y-32447085D01*
G37*
G36*
X28527604Y-32447085D02*
G01*
X28696126Y-32516889D01*
X28847791Y-32618228D01*
X28976772Y-32747209D01*
X29078111Y-32898874D01*
X29147915Y-33067396D01*
X29183500Y-33246297D01*
X29183500Y-33428703D01*
X29147915Y-33607604D01*
X29078111Y-33776126D01*
X28976772Y-33927791D01*
X28847791Y-34056772D01*
X28696126Y-34158111D01*
X28527604Y-34227915D01*
X28348703Y-34263500D01*
X28166297Y-34263500D01*
X27987396Y-34227915D01*
X27818874Y-34158111D01*
X27667209Y-34056772D01*
X27538228Y-33927791D01*
X27436889Y-33776126D01*
X27367085Y-33607604D01*
X27331500Y-33428703D01*
X27331500Y-33246297D01*
X27367085Y-33067396D01*
X27436889Y-32898874D01*
X27538228Y-32747209D01*
X27667209Y-32618228D01*
X27818874Y-32516889D01*
X27987396Y-32447085D01*
X28166297Y-32411500D01*
X28348703Y-32411500D01*
X28527604Y-32447085D01*
X28527604Y-32447085D01*
G37*
G36*
X38687604Y-32447085D02*
G01*
X38856126Y-32516889D01*
X39007791Y-32618228D01*
X39136772Y-32747209D01*
X39238111Y-32898874D01*
X39307915Y-33067396D01*
X39343500Y-33246297D01*
X39343500Y-33428703D01*
X39307915Y-33607604D01*
X39238111Y-33776126D01*
X39136772Y-33927791D01*
X39007791Y-34056772D01*
X38856126Y-34158111D01*
X38687604Y-34227915D01*
X38508703Y-34263500D01*
X38326297Y-34263500D01*
X38147396Y-34227915D01*
X37978874Y-34158111D01*
X37827209Y-34056772D01*
X37698228Y-33927791D01*
X37596889Y-33776126D01*
X37527085Y-33607604D01*
X37491500Y-33428703D01*
X37491500Y-33246297D01*
X37527085Y-33067396D01*
X37596889Y-32898874D01*
X37698228Y-32747209D01*
X37827209Y-32618228D01*
X37978874Y-32516889D01*
X38147396Y-32447085D01*
X38326297Y-32411500D01*
X38508703Y-32411500D01*
X38687604Y-32447085D01*
X38687604Y-32447085D01*
G37*
G36*
X79337000Y-33414000D02*
G01*
X78635000Y-33414000D01*
X78635000Y-31762000D01*
X79337000Y-31762000D01*
X79337000Y-33414000D01*
X79337000Y-33414000D01*
G37*
G36*
X77337000Y-33414000D02*
G01*
X76635000Y-33414000D01*
X76635000Y-31762000D01*
X77337000Y-31762000D01*
X77337000Y-33414000D01*
X77337000Y-33414000D01*
G37*
G36*
X78337000Y-33414000D02*
G01*
X77635000Y-33414000D01*
X77635000Y-31762000D01*
X78337000Y-31762000D01*
X78337000Y-33414000D01*
X78337000Y-33414000D01*
G37*
G36*
X80337000Y-33414000D02*
G01*
X79635000Y-33414000D01*
X79635000Y-31762000D01*
X80337000Y-31762000D01*
X80337000Y-33414000D01*
X80337000Y-33414000D01*
G37*
G36*
X65526000Y-33382250D02*
G01*
X64824000Y-33382250D01*
X64824000Y-31730250D01*
X65526000Y-31730250D01*
X65526000Y-33382250D01*
X65526000Y-33382250D01*
G37*
G36*
X66526000Y-33382250D02*
G01*
X65824000Y-33382250D01*
X65824000Y-31730250D01*
X66526000Y-31730250D01*
X66526000Y-33382250D01*
X66526000Y-33382250D01*
G37*
G36*
X67526000Y-33382250D02*
G01*
X66824000Y-33382250D01*
X66824000Y-31730250D01*
X67526000Y-31730250D01*
X67526000Y-33382250D01*
X67526000Y-33382250D01*
G37*
G36*
X68526000Y-33382250D02*
G01*
X67824000Y-33382250D01*
X67824000Y-31730250D01*
X68526000Y-31730250D01*
X68526000Y-33382250D01*
X68526000Y-33382250D01*
G37*
G36*
X48747370Y-29632250D02*
G01*
X48920527Y-29666693D01*
X49134545Y-29755342D01*
X49134546Y-29755343D01*
X49327154Y-29884039D01*
X49490961Y-30047846D01*
X49576758Y-30176251D01*
X49619658Y-30240455D01*
X49708307Y-30454473D01*
X49753500Y-30681674D01*
X49753500Y-30913326D01*
X49708307Y-31140527D01*
X49619658Y-31354545D01*
X49619657Y-31354546D01*
X49490961Y-31547154D01*
X49327154Y-31710961D01*
X49270040Y-31749123D01*
X49134545Y-31839658D01*
X48920527Y-31928307D01*
X48769060Y-31958436D01*
X48693327Y-31973500D01*
X48461673Y-31973500D01*
X48385940Y-31958436D01*
X48234473Y-31928307D01*
X48020455Y-31839658D01*
X47884960Y-31749123D01*
X47827846Y-31710961D01*
X47664039Y-31547154D01*
X47535343Y-31354546D01*
X47535342Y-31354545D01*
X47446693Y-31140527D01*
X47401500Y-30913326D01*
X47401500Y-30681674D01*
X47446693Y-30454473D01*
X47535342Y-30240455D01*
X47578242Y-30176251D01*
X47664039Y-30047846D01*
X47827846Y-29884039D01*
X48020454Y-29755343D01*
X48020455Y-29755342D01*
X48234473Y-29666693D01*
X48407630Y-29632250D01*
X48461673Y-29621500D01*
X48693327Y-29621500D01*
X48747370Y-29632250D01*
X48747370Y-29632250D01*
G37*
G36*
X29697370Y-29632250D02*
G01*
X29870527Y-29666693D01*
X30084545Y-29755342D01*
X30084546Y-29755343D01*
X30277154Y-29884039D01*
X30440961Y-30047846D01*
X30526758Y-30176251D01*
X30569658Y-30240455D01*
X30658307Y-30454473D01*
X30703500Y-30681674D01*
X30703500Y-30913326D01*
X30658307Y-31140527D01*
X30569658Y-31354545D01*
X30569657Y-31354546D01*
X30440961Y-31547154D01*
X30277154Y-31710961D01*
X30220040Y-31749123D01*
X30084545Y-31839658D01*
X29870527Y-31928307D01*
X29719060Y-31958436D01*
X29643327Y-31973500D01*
X29411673Y-31973500D01*
X29335940Y-31958436D01*
X29184473Y-31928307D01*
X28970455Y-31839658D01*
X28834960Y-31749123D01*
X28777846Y-31710961D01*
X28614039Y-31547154D01*
X28485343Y-31354546D01*
X28485342Y-31354545D01*
X28396693Y-31140527D01*
X28351500Y-30913326D01*
X28351500Y-30681674D01*
X28396693Y-30454473D01*
X28485342Y-30240455D01*
X28528242Y-30176251D01*
X28614039Y-30047846D01*
X28777846Y-29884039D01*
X28970454Y-29755343D01*
X28970455Y-29755342D01*
X29184473Y-29666693D01*
X29357630Y-29632250D01*
X29411673Y-29621500D01*
X29643327Y-29621500D01*
X29697370Y-29632250D01*
X29697370Y-29632250D01*
G37*
G36*
X76337000Y-29664000D02*
G01*
X75035000Y-29664000D01*
X75035000Y-27762000D01*
X76337000Y-27762000D01*
X76337000Y-29664000D01*
X76337000Y-29664000D01*
G37*
G36*
X81937000Y-29664000D02*
G01*
X80635000Y-29664000D01*
X80635000Y-27762000D01*
X81937000Y-27762000D01*
X81937000Y-29664000D01*
X81937000Y-29664000D01*
G37*
G36*
X64526000Y-29632250D02*
G01*
X63224000Y-29632250D01*
X63224000Y-27730250D01*
X64526000Y-27730250D01*
X64526000Y-29632250D01*
X64526000Y-29632250D01*
G37*
G36*
X70126000Y-29632250D02*
G01*
X68824000Y-29632250D01*
X68824000Y-27730250D01*
X70126000Y-27730250D01*
X70126000Y-29632250D01*
X70126000Y-29632250D01*
G37*
G36*
X36069060Y-27096564D02*
G01*
X36220527Y-27126693D01*
X36434545Y-27215342D01*
X36434546Y-27215343D01*
X36627154Y-27344039D01*
X36790961Y-27507846D01*
X36876758Y-27636251D01*
X36919658Y-27700455D01*
X37008307Y-27914473D01*
X37008307Y-27914475D01*
X37053500Y-28141673D01*
X37053500Y-28373327D01*
X37038436Y-28449060D01*
X37008307Y-28600527D01*
X36919658Y-28814545D01*
X36919657Y-28814546D01*
X36790961Y-29007154D01*
X36627154Y-29170961D01*
X36498749Y-29256758D01*
X36434545Y-29299658D01*
X36220527Y-29388307D01*
X36069060Y-29418436D01*
X35993327Y-29433500D01*
X35761673Y-29433500D01*
X35685940Y-29418436D01*
X35534473Y-29388307D01*
X35320455Y-29299658D01*
X35256251Y-29256758D01*
X35127846Y-29170961D01*
X34964039Y-29007154D01*
X34835343Y-28814546D01*
X34835342Y-28814545D01*
X34746693Y-28600527D01*
X34716564Y-28449060D01*
X34701500Y-28373327D01*
X34701500Y-28141673D01*
X34746693Y-27914475D01*
X34746693Y-27914473D01*
X34835342Y-27700455D01*
X34878242Y-27636251D01*
X34964039Y-27507846D01*
X35127846Y-27344039D01*
X35320454Y-27215343D01*
X35320455Y-27215342D01*
X35534473Y-27126693D01*
X35685940Y-27096564D01*
X35761673Y-27081500D01*
X35993327Y-27081500D01*
X36069060Y-27096564D01*
X36069060Y-27096564D01*
G37*
G36*
X55119060Y-27096564D02*
G01*
X55270527Y-27126693D01*
X55484545Y-27215342D01*
X55484546Y-27215343D01*
X55677154Y-27344039D01*
X55840961Y-27507846D01*
X55926758Y-27636251D01*
X55969658Y-27700455D01*
X56058307Y-27914473D01*
X56058307Y-27914475D01*
X56103500Y-28141673D01*
X56103500Y-28373327D01*
X56088436Y-28449060D01*
X56058307Y-28600527D01*
X55969658Y-28814545D01*
X55969657Y-28814546D01*
X55840961Y-29007154D01*
X55677154Y-29170961D01*
X55548749Y-29256758D01*
X55484545Y-29299658D01*
X55270527Y-29388307D01*
X55119060Y-29418436D01*
X55043327Y-29433500D01*
X54811673Y-29433500D01*
X54735940Y-29418436D01*
X54584473Y-29388307D01*
X54370455Y-29299658D01*
X54306251Y-29256758D01*
X54177846Y-29170961D01*
X54014039Y-29007154D01*
X53885343Y-28814546D01*
X53885342Y-28814545D01*
X53796693Y-28600527D01*
X53766564Y-28449060D01*
X53751500Y-28373327D01*
X53751500Y-28141673D01*
X53796693Y-27914475D01*
X53796693Y-27914473D01*
X53885342Y-27700455D01*
X53928242Y-27636251D01*
X54014039Y-27507846D01*
X54177846Y-27344039D01*
X54370454Y-27215343D01*
X54370455Y-27215342D01*
X54584473Y-27126693D01*
X54735940Y-27096564D01*
X54811673Y-27081500D01*
X55043327Y-27081500D01*
X55119060Y-27096564D01*
X55119060Y-27096564D01*
G37*
G36*
X90441331Y-25065211D02*
G01*
X90769092Y-25200974D01*
X91064070Y-25398072D01*
X91314928Y-25648930D01*
X91512026Y-25943908D01*
X91647789Y-26271669D01*
X91717000Y-26619616D01*
X91717000Y-26974384D01*
X91647789Y-27322331D01*
X91512026Y-27650092D01*
X91314928Y-27945070D01*
X91064070Y-28195928D01*
X90769092Y-28393026D01*
X90441331Y-28528789D01*
X90093384Y-28598000D01*
X89738616Y-28598000D01*
X89390669Y-28528789D01*
X89062908Y-28393026D01*
X88767930Y-28195928D01*
X88517072Y-27945070D01*
X88319974Y-27650092D01*
X88184211Y-27322331D01*
X88115000Y-26974384D01*
X88115000Y-26619616D01*
X88184211Y-26271669D01*
X88319974Y-25943908D01*
X88517072Y-25648930D01*
X88767930Y-25398072D01*
X89062908Y-25200974D01*
X89390669Y-25065211D01*
X89738616Y-24996000D01*
X90093384Y-24996000D01*
X90441331Y-25065211D01*
X90441331Y-25065211D01*
G37*
G36*
X27449331Y-25065211D02*
G01*
X27777092Y-25200974D01*
X28072070Y-25398072D01*
X28322928Y-25648930D01*
X28520026Y-25943908D01*
X28655789Y-26271669D01*
X28725000Y-26619616D01*
X28725000Y-26974384D01*
X28655789Y-27322331D01*
X28520026Y-27650092D01*
X28322928Y-27945070D01*
X28072070Y-28195928D01*
X27777092Y-28393026D01*
X27449331Y-28528789D01*
X27101384Y-28598000D01*
X26746616Y-28598000D01*
X26398669Y-28528789D01*
X26070908Y-28393026D01*
X25775930Y-28195928D01*
X25525072Y-27945070D01*
X25327974Y-27650092D01*
X25192211Y-27322331D01*
X25123000Y-26974384D01*
X25123000Y-26619616D01*
X25192211Y-26271669D01*
X25327974Y-25943908D01*
X25525072Y-25648930D01*
X25775930Y-25398072D01*
X26070908Y-25200974D01*
X26398669Y-25065211D01*
X26746616Y-24996000D01*
X27101384Y-24996000D01*
X27449331Y-25065211D01*
X27449331Y-25065211D01*
G37*
M02*
