G04 #@! TF.GenerationSoftware,KiCad,Pcbnew,(5.1.2)-2*
G04 #@! TF.CreationDate,2020-07-12T21:59:46+03:00*
G04 #@! TF.ProjectId,KB-Prototype,4b422d50-726f-4746-9f74-7970652e6b69,rev?*
G04 #@! TF.SameCoordinates,Original*
G04 #@! TF.FileFunction,Copper,L1,Top*
G04 #@! TF.FilePolarity,Positive*
%FSLAX46Y46*%
G04 Gerber Fmt 4.6, Leading zero omitted, Abs format (unit mm)*
G04 Created by KiCad (PCBNEW (5.1.2)-2) date 2020-07-12 21:59:46*
%MOMM*%
%LPD*%
G04 APERTURE LIST*
%ADD10C,3.500000*%
%ADD11R,1.800000X1.100000*%
%ADD12C,2.250000*%
%ADD13C,0.800000*%
%ADD14C,0.381000*%
%ADD15C,0.250000*%
G04 APERTURE END LIST*
D10*
X89789000Y-77978000D03*
X89916000Y-26797000D03*
X26797000Y-77978000D03*
X26924000Y-26797000D03*
D11*
X74093000Y-70794000D03*
X67893000Y-74494000D03*
X74093000Y-74494000D03*
X67893000Y-70794000D03*
D12*
X54927500Y-66357500D03*
X48577500Y-68897500D03*
X35877500Y-66357500D03*
X29527500Y-68897500D03*
X54927500Y-47307500D03*
X48577500Y-49847500D03*
X35877500Y-47307500D03*
X29527500Y-49847500D03*
X54927500Y-28257500D03*
X48577500Y-30797500D03*
X35877500Y-28257500D03*
X29527500Y-30797500D03*
D13*
X65532000Y-62357000D03*
X87503000Y-50927000D03*
X84201000Y-63500000D03*
X69596000Y-58420000D03*
X69723000Y-53975000D03*
X68072000Y-45339000D03*
X65151000Y-34671000D03*
X75819000Y-34671000D03*
X64897000Y-50419000D03*
X60833000Y-46355000D03*
X60452000Y-52578000D03*
X64897000Y-51562000D03*
X60579000Y-54737000D03*
X65151000Y-53213000D03*
X29527500Y-60388500D03*
X60593421Y-53567952D03*
X64342299Y-52394051D03*
X48577500Y-59668750D03*
X66294000Y-48895000D03*
D14*
X65532000Y-67502000D02*
X65532000Y-62357000D01*
X67893000Y-70794000D02*
X67893000Y-69863000D01*
X67893000Y-69863000D02*
X65532000Y-67502000D01*
X69723000Y-46990000D02*
X69723000Y-53975000D01*
X68072000Y-45339000D02*
X69723000Y-46990000D01*
X69723000Y-58293000D02*
X69596000Y-58420000D01*
X69723000Y-53975000D02*
X69723000Y-58293000D01*
X69596000Y-58420000D02*
X69596000Y-59690000D01*
X73406000Y-63500000D02*
X84201000Y-63500000D01*
X69596000Y-59690000D02*
X73406000Y-63500000D01*
X87503000Y-60198000D02*
X87503000Y-50927000D01*
X84201000Y-63500000D02*
X87503000Y-60198000D01*
X65151000Y-34671000D02*
X75819000Y-34671000D01*
D15*
X64897000Y-50419000D02*
X60833000Y-46355000D01*
X60452000Y-52578000D02*
X61468000Y-51562000D01*
X61468000Y-51562000D02*
X64897000Y-51562000D01*
X29527500Y-30797500D02*
X29527500Y-49847500D01*
X29527500Y-49847500D02*
X29527500Y-59753500D01*
X60579000Y-54737000D02*
X60978999Y-54337001D01*
X60978999Y-54337001D02*
X61595000Y-53721000D01*
X61595000Y-53721000D02*
X62103000Y-53213000D01*
X62103000Y-53213000D02*
X65151000Y-53213000D01*
X29527500Y-59753500D02*
X29527500Y-60388500D01*
X29527500Y-60388500D02*
X29527500Y-68897500D01*
X60993420Y-53167953D02*
X61005047Y-53167953D01*
X60593421Y-53567952D02*
X60993420Y-53167953D01*
X61005047Y-53167953D02*
X61778949Y-52394051D01*
X61778949Y-52394051D02*
X64342299Y-52394051D01*
X48577500Y-32388490D02*
X48577500Y-49847500D01*
X48577500Y-30797500D02*
X48577500Y-32388490D01*
X48577500Y-49847500D02*
X48577500Y-51438490D01*
X48577500Y-60515500D02*
X48577500Y-60732500D01*
X48577500Y-60515500D02*
X48577500Y-68897500D01*
X48577500Y-59372500D02*
X48577500Y-59668750D01*
X48577500Y-59372500D02*
X48577500Y-60515500D01*
X48577500Y-51438490D02*
X48577500Y-59372500D01*
X66294000Y-65659000D02*
X66294000Y-48895000D01*
X74093000Y-74494000D02*
X74093000Y-73458000D01*
X74093000Y-73458000D02*
X66294000Y-65659000D01*
M02*
