M48
; DRILL file {KiCad (5.1.2)-2} date 12/07/2020 21:59:52
; FORMAT={-:-/ absolute / inch / decimal}
; #@! TF.CreationDate,2020-07-12T21:59:52+03:00
; #@! TF.GenerationSoftware,Kicad,Pcbnew,(5.1.2)-2
; #@! TF.FileFunction,Plated,1,2,PTH
FMAT,2
INCH
T1C0.0157
T2C0.0579
T3C0.0866
%
G90
G05
T1
X1.1625Y-2.3775
X1.9125Y-2.3492
X2.38Y-2.07
X2.385Y-2.155
X2.3856Y-2.109
X2.395Y-1.825
X2.5332Y-2.0628
X2.555Y-1.985
X2.555Y-2.03
X2.565Y-1.365
X2.565Y-2.095
X2.58Y-2.455
X2.61Y-1.925
X2.68Y-1.785
X2.74Y-2.3
X2.745Y-2.125
X2.985Y-1.365
X3.315Y-2.5
X3.445Y-2.005
T2
X1.1625Y-2.7125
X1.4125Y-2.6125
X1.9125Y-2.7125
X2.1625Y-2.6125
X1.9125Y-1.2125
X2.1625Y-1.1125
X1.1625Y-1.9625
X1.4125Y-1.8625
X1.9125Y-1.9625
X2.1625Y-1.8625
X1.1625Y-1.2125
X1.4125Y-1.1125
T3
X3.54Y-1.055
X3.535Y-3.07
X1.055Y-3.07
X1.06Y-1.055
T0
M30
