G04 #@! TF.GenerationSoftware,KiCad,Pcbnew,(5.1.2)-2*
G04 #@! TF.CreationDate,2020-07-12T21:59:46+03:00*
G04 #@! TF.ProjectId,KB-Prototype,4b422d50-726f-4746-9f74-7970652e6b69,rev?*
G04 #@! TF.SameCoordinates,Original*
G04 #@! TF.FileFunction,Legend,Top*
G04 #@! TF.FilePolarity,Positive*
%FSLAX46Y46*%
G04 Gerber Fmt 4.6, Leading zero omitted, Abs format (unit mm)*
G04 Created by KiCad (PCBNEW (5.1.2)-2) date 2020-07-12 21:59:46*
%MOMM*%
%LPD*%
G04 APERTURE LIST*
%ADD10C,0.150000*%
%ADD11C,3.602000*%
%ADD12R,1.902000X1.202000*%
%ADD13C,4.089800*%
%ADD14C,1.852000*%
G04 APERTURE END LIST*
D10*
X78891428Y-72906380D02*
X78891428Y-71906380D01*
X79462857Y-72906380D02*
X79034285Y-72334952D01*
X79462857Y-71906380D02*
X78891428Y-72477809D01*
X80224761Y-72382571D02*
X80367619Y-72430190D01*
X80415238Y-72477809D01*
X80462857Y-72573047D01*
X80462857Y-72715904D01*
X80415238Y-72811142D01*
X80367619Y-72858761D01*
X80272380Y-72906380D01*
X79891428Y-72906380D01*
X79891428Y-71906380D01*
X80224761Y-71906380D01*
X80320000Y-71954000D01*
X80367619Y-72001619D01*
X80415238Y-72096857D01*
X80415238Y-72192095D01*
X80367619Y-72287333D01*
X80320000Y-72334952D01*
X80224761Y-72382571D01*
X79891428Y-72382571D01*
X80891428Y-72525428D02*
X81653333Y-72525428D01*
X82129523Y-72906380D02*
X82129523Y-71906380D01*
X82510476Y-71906380D01*
X82605714Y-71954000D01*
X82653333Y-72001619D01*
X82700952Y-72096857D01*
X82700952Y-72239714D01*
X82653333Y-72334952D01*
X82605714Y-72382571D01*
X82510476Y-72430190D01*
X82129523Y-72430190D01*
X83129523Y-72906380D02*
X83129523Y-72239714D01*
X83129523Y-72430190D02*
X83177142Y-72334952D01*
X83224761Y-72287333D01*
X83320000Y-72239714D01*
X83415238Y-72239714D01*
X83891428Y-72906380D02*
X83796190Y-72858761D01*
X83748571Y-72811142D01*
X83700952Y-72715904D01*
X83700952Y-72430190D01*
X83748571Y-72334952D01*
X83796190Y-72287333D01*
X83891428Y-72239714D01*
X84034285Y-72239714D01*
X84129523Y-72287333D01*
X84177142Y-72334952D01*
X84224761Y-72430190D01*
X84224761Y-72715904D01*
X84177142Y-72811142D01*
X84129523Y-72858761D01*
X84034285Y-72906380D01*
X83891428Y-72906380D01*
X84510476Y-72239714D02*
X84891428Y-72239714D01*
X84653333Y-71906380D02*
X84653333Y-72763523D01*
X84700952Y-72858761D01*
X84796190Y-72906380D01*
X84891428Y-72906380D01*
X85367619Y-72906380D02*
X85272380Y-72858761D01*
X85224761Y-72811142D01*
X85177142Y-72715904D01*
X85177142Y-72430190D01*
X85224761Y-72334952D01*
X85272380Y-72287333D01*
X85367619Y-72239714D01*
X85510476Y-72239714D01*
X85605714Y-72287333D01*
X85653333Y-72334952D01*
X85700952Y-72430190D01*
X85700952Y-72715904D01*
X85653333Y-72811142D01*
X85605714Y-72858761D01*
X85510476Y-72906380D01*
X85367619Y-72906380D01*
X85986666Y-72239714D02*
X86367619Y-72239714D01*
X86129523Y-71906380D02*
X86129523Y-72763523D01*
X86177142Y-72858761D01*
X86272380Y-72906380D01*
X86367619Y-72906380D01*
X86605714Y-72239714D02*
X86843809Y-72906380D01*
X87081904Y-72239714D02*
X86843809Y-72906380D01*
X86748571Y-73144476D01*
X86700952Y-73192095D01*
X86605714Y-73239714D01*
X87462857Y-72239714D02*
X87462857Y-73239714D01*
X87462857Y-72287333D02*
X87558095Y-72239714D01*
X87748571Y-72239714D01*
X87843809Y-72287333D01*
X87891428Y-72334952D01*
X87939047Y-72430190D01*
X87939047Y-72715904D01*
X87891428Y-72811142D01*
X87843809Y-72858761D01*
X87748571Y-72906380D01*
X87558095Y-72906380D01*
X87462857Y-72858761D01*
X88748571Y-72858761D02*
X88653333Y-72906380D01*
X88462857Y-72906380D01*
X88367619Y-72858761D01*
X88320000Y-72763523D01*
X88320000Y-72382571D01*
X88367619Y-72287333D01*
X88462857Y-72239714D01*
X88653333Y-72239714D01*
X88748571Y-72287333D01*
X88796190Y-72382571D01*
X88796190Y-72477809D01*
X88320000Y-72573047D01*
X82486666Y-74556380D02*
X82153333Y-74080190D01*
X81915238Y-74556380D02*
X81915238Y-73556380D01*
X82296190Y-73556380D01*
X82391428Y-73604000D01*
X82439047Y-73651619D01*
X82486666Y-73746857D01*
X82486666Y-73889714D01*
X82439047Y-73984952D01*
X82391428Y-74032571D01*
X82296190Y-74080190D01*
X81915238Y-74080190D01*
X82915238Y-74556380D02*
X82915238Y-73556380D01*
X83915238Y-73604000D02*
X83820000Y-73556380D01*
X83677142Y-73556380D01*
X83534285Y-73604000D01*
X83439047Y-73699238D01*
X83391428Y-73794476D01*
X83343809Y-73984952D01*
X83343809Y-74127809D01*
X83391428Y-74318285D01*
X83439047Y-74413523D01*
X83534285Y-74508761D01*
X83677142Y-74556380D01*
X83772380Y-74556380D01*
X83915238Y-74508761D01*
X83962857Y-74461142D01*
X83962857Y-74127809D01*
X83772380Y-74127809D01*
X84391428Y-74556380D02*
X84391428Y-73556380D01*
X84391428Y-74032571D02*
X84962857Y-74032571D01*
X84962857Y-74556380D02*
X84962857Y-73556380D01*
X85296190Y-73556380D02*
X85867619Y-73556380D01*
X85581904Y-74556380D02*
X85581904Y-73556380D01*
X73593000Y-75244000D02*
X68393000Y-75244000D01*
X68393000Y-75244000D02*
X68393000Y-70044000D01*
X68393000Y-70044000D02*
X73593000Y-70044000D01*
X73593000Y-70044000D02*
X73593000Y-75244000D01*
X71993000Y-72644000D02*
G75*
G03X71993000Y-72644000I-1000000J0D01*
G01*
%LPC*%
D11*
X89789000Y-77978000D03*
X89916000Y-26797000D03*
X26797000Y-77978000D03*
X26924000Y-26797000D03*
D12*
X74093000Y-70794000D03*
X67893000Y-74494000D03*
X74093000Y-74494000D03*
X67893000Y-70794000D03*
D13*
X52387500Y-71437500D03*
D14*
X47307500Y-71437500D03*
X57467500Y-71437500D03*
D13*
X33337500Y-71437500D03*
D14*
X28257500Y-71437500D03*
X38417500Y-71437500D03*
D13*
X52387500Y-52387500D03*
D14*
X47307500Y-52387500D03*
X57467500Y-52387500D03*
D13*
X33337500Y-52387500D03*
D14*
X28257500Y-52387500D03*
X38417500Y-52387500D03*
D13*
X52387500Y-33337500D03*
D14*
X47307500Y-33337500D03*
X57467500Y-33337500D03*
D13*
X33337500Y-33337500D03*
D14*
X28257500Y-33337500D03*
X38417500Y-33337500D03*
M02*
